<?xml version="1.0" encoding="UTF-8" standalone="no"?>
<!-- Created with Inkscape (http://www.inkscape.org/) -->

<svg
   width="78.846214mm"
   height="53.62875mm"
   viewBox="0 0 78.846214 53.62875"
   version="1.1"
   id="svg1"
   inkscape:version="1.4.3 (0d15f75, 2025-12-25)"
   sodipodi:docname="remi.svg"
   xmlns:inkscape="http://www.inkscape.org/namespaces/inkscape"
   xmlns:sodipodi="http://sodipodi.sourceforge.net/DTD/sodipodi-0.dtd"
   xmlns="http://www.w3.org/2000/svg"
   xmlns:svg="http://www.w3.org/2000/svg">
  <sodipodi:namedview
     id="namedview1"
     pagecolor="#505050"
     bordercolor="#ffffff"
     borderopacity="1"
     inkscape:showpageshadow="0"
     inkscape:pageopacity="0"
     inkscape:pagecheckerboard="1"
     inkscape:deskcolor="#505050"
     inkscape:document-units="mm"
     inkscape:zoom="2.8756734"
     inkscape:cx="148.31309"
     inkscape:cy="134.4033"
     inkscape:window-width="1920"
     inkscape:window-height="1009"
     inkscape:window-x="-8"
     inkscape:window-y="-8"
     inkscape:window-maximized="1"
     inkscape:current-layer="layer1" />
  <defs
     id="defs1" />
  <g
     inkscape:label="Layer 1"
     inkscape:groupmode="layer"
     id="layer1"
     transform="translate(-55.251975,-106.14169)">
    <path
       id="path94"
       d="m 120.9545,152.00556 c -0.13476,0 -0.27129,-0.0138 -0.40816,-0.0427 -1.07033,-0.22401 -1.75648,-1.27388 -1.53212,-2.3442 l 0.13759,-0.6477 c 0.67486,-3.15172 0.68192,-3.72463 -0.70697,-4.64327 -0.94439,-0.62547 -2.84304,-0.19438 -4.83729,1.09785 -0.91828,0.59443 -2.14454,0.33232 -2.73861,-0.58561 -0.59479,-0.91793 -0.33267,-2.14419 0.58525,-2.73862 3.46922,-2.24719 6.81426,-2.63983 9.17611,-1.07703 3.74297,2.4758 3.05752,5.67867 2.39465,8.77606 l -0.13441,0.63076 c -0.19543,0.93345 -1.01882,1.57445 -1.93604,1.57445"
       style="fill:#010101;fill-opacity:1;fill-rule:nonzero;stroke:none;stroke-width:0.352778" />
    <path
       id="path95"
       d="m 130.62245,148.3136 c -0.81633,0 -1.5808,-0.50871 -1.86761,-1.32256 -1.34443,-3.80189 -3.84175,-8.12518 -5.41619,-8.49983 -2.68641,-0.64029 -5.91714,0.43392 -8.642,2.87196 -0.81492,0.72884 -2.06692,0.6597 -2.79612,-0.15522 -0.72919,-0.81527 -0.65969,-2.06692 0.15523,-2.79647 3.7465,-3.35209 8.19361,-4.72757 12.20011,-3.77331 4.51379,1.07421 7.6514,9.38177 8.23419,11.0363 0.36371,1.03152 -0.1778,2.16217 -1.20933,2.52589 -0.21766,0.0765 -0.43991,0.11324 -0.65828,0.11324"
       style="fill:#010101;fill-opacity:1;fill-rule:nonzero;stroke:none;stroke-width:0.352778" />
    <path
       id="path96"
       d="m 132.11523,140.15441 c -0.99413,0 -1.85102,-0.74683 -1.96532,-1.75789 -0.1711,-1.45415 -1.18745,-5.6702 -3.52743,-5.90268 -3.08751,-0.30374 -7.73183,2.2539 -9.26077,3.26602 -0.91158,0.60325 -2.1403,0.35489 -2.74426,-0.55598 -0.60431,-0.91087 -0.35666,-2.13854 0.55351,-2.74355 0.68122,-0.45262 6.8005,-4.40831 11.84275,-3.90772 4.79707,0.47625 6.70243,6.13198 7.07178,9.3987 0.12277,1.08656 -0.65863,2.06728 -1.74519,2.1904 -0.0759,0.008 -0.15099,0.0127 -0.22507,0.0127"
       style="fill:#010101;fill-opacity:1;fill-rule:nonzero;stroke:none;stroke-width:0.352778" />
    <path
       id="path97"
       d="m 115.06459,132.12512 c -0.87312,0 -1.67287,-0.58173 -1.911,-1.46509 -0.28328,-1.05127 0.33514,-2.13324 1.38219,-2.42358 0.0815,-0.0243 2.98203,-0.91228 5.59188,-4.22487 2.66135,-3.37749 2.93299,-7.16985 2.93511,-7.20725 0.0582,-1.09184 0.99271,-1.92757 2.08315,-1.87183 1.09185,0.0582 1.93005,0.99095 1.87184,2.08315 -0.0109,0.2039 -0.30621,5.03978 -3.77931,9.44703 -3.49038,4.43019 -7.48877,5.54814 -7.65704,5.59365 -0.17251,0.0466 -0.34643,0.0688 -0.51682,0.0688"
       style="fill:#010101;fill-opacity:1;fill-rule:nonzero;stroke:none;stroke-width:0.352778" />
    <path
       id="path98"
       d="m 70.390829,159.77044 c -0.73589,0 -1.4418,-0.41169 -1.78294,-1.11901 -0.15416,-0.31997 -3.72886,-7.88776 0.61525,-12.26467 4.55048,-4.5847 11.02148,-3.35845 11.29453,-3.30377 1.0728,0.21379 1.76883,1.2566 1.55504,2.32904 -0.21308,1.06998 -1.2513,1.76566 -2.32092,1.55681 -0.09,-0.0162 -4.70147,-0.83009 -7.71737,2.20839 -2.33539,2.35267 0.11783,7.70467 0.14323,7.75794 0.46955,0.98601 0.0536,2.16781 -0.93098,2.63983 -0.27623,0.13265 -0.56868,0.19544 -0.85584,0.19544"
       style="fill:#010101;fill-opacity:1;fill-rule:nonzero;stroke:none;stroke-width:0.352778" />
    <path
       id="path99"
       d="m 61.976689,153.07059 c -0.66463,0 -1.31339,-0.33479 -1.68628,-0.94297 -0.12735,-0.20744 -3.0988,-5.1308 -1.65876,-9.7208 0.75283,-2.39924 2.49908,-4.21287 5.18971,-5.39009 5.06307,-2.21474 11.1305,1.13066 11.38626,1.27388 0.95391,0.53552 1.29328,1.74237 0.75847,2.69628 -0.53446,0.9525 -1.73849,1.29329 -2.6931,0.75989 -1.27459,-0.70662 -5.16926,-2.28001 -7.86448,-1.10138 -1.61184,0.70521 -2.5915,1.66547 -2.99402,2.93547 -0.75248,2.37208 0.65052,5.48216 1.25483,6.48053 0.56515,0.9338 0.26952,2.15123 -0.66217,2.71885 -0.32244,0.1965 -0.67874,0.29034 -1.03046,0.29034"
       style="fill:#010101;fill-opacity:1;fill-rule:nonzero;stroke:none;stroke-width:0.352778" />
    <path
       id="path100"
       d="m 57.233839,139.22992 c -0.0325,0 -0.0653,-7.1e-4 -0.0981,-0.002 -1.09255,-0.0533 -1.93464,-0.98213 -1.88137,-2.07433 0.30304,-6.20889 3.0473,-9.35955 8.63706,-9.91623 6.69713,-0.66675 11.8431,6.02756 12.05865,6.31296 0.6597,0.87241 0.48754,2.11455 -0.38523,2.77424 -0.87136,0.65899 -2.11138,0.48754 -2.77142,-0.38206 -0.0593,-0.0776 -4.04178,-5.20559 -8.50971,-4.76391 -3.11044,0.30974 -4.84011,1.3843 -5.0733,6.16797 -0.0519,1.05939 -0.9271,1.88383 -1.97661,1.88383"
       style="fill:#010101;fill-opacity:1;fill-rule:nonzero;stroke:none;stroke-width:0.352778" />
    <path
       id="path101"
       d="m 74.888739,133.1929 c -0.24165,0 -0.48719,-0.0444 -0.72602,-0.13864 -0.32984,-0.13018 -8.09484,-3.2632 -8.97255,-9.84391 -1.15323,-8.65047 2.71286,-13.59923 2.87832,-13.80596 0.68298,-0.85407 1.92899,-0.99236 2.78341,-0.30903 0.85408,0.68297 0.99237,1.92934 0.30904,2.78341 -0.11183,0.14499 -2.96263,3.9236 -2.0447,10.80806 0.56409,4.23086 6.44031,6.65938 6.49957,6.68302 1.01706,0.40075 1.51695,1.55116 1.11584,2.56857 -0.30727,0.77894 -1.05339,1.25448 -1.84291,1.25448"
       style="fill:#010101;fill-opacity:1;fill-rule:nonzero;stroke:none;stroke-width:0.352778" />
    <path
       id="path102"
       d="m 104.07454,150.59702 c 0,0 2.08915,0.51012 5.24757,-0.95567 2.39677,-1.08832 3.69076,-2.99015 4.31482,-4.35152 0.97014,-2.11667 1.47603,-6.30872 1.47603,-6.30872 0,0 0.96625,-0.26776 1.67146,-1.42769 0.7052,-1.15994 0.76376,-3.03107 0.33584,-4.55401 -0.77117,-2.74673 -1.61502,-3.81141 -1.61502,-3.81141 0,0 0.37677,-0.11501 0.92358,-1.41076 0.44944,-1.36102 -0.60008,-3.0607 -1.18216,-3.91866 -1.6757,-2.46944 -4.46899,-4.15325 -4.46899,-4.15325 0,0 0.48507,-0.49495 0.50024,-1.44709 0.0268,-1.69722 -0.97755,-2.69734 -2.57069,-3.71793 -1.59667,-1.0227 -3.34645,-1.48378 -3.85269,-1.61184 -2.86949,-0.72531 -5.769681,-0.35878 -5.769681,-0.35878 0.43533,-0.33725 0.924631,-1.3275 0.26388,-1.81363 -0.6604,-0.48612 -1.62137,-0.67557 -2.91324,-0.68439 -1.29187,-0.009 -2.84268,0.67804 -2.84268,0.67804 0,0 0.55986,-0.81385 0.90628,-1.56421 0.34608,-0.75036 1.21779,-2.19392 0.23848,-2.77107 -0.97931,-0.57714 -1.81963,-0.12982 -2.60526,0.34149 -0.78564,0.47131 -1.60691,1.80481 -2.02777,2.83245 -0.42051,1.02799 -0.33655,1.93781 -0.33655,1.93781 0,0 -0.0931,-0.66746 -1.32821,-1.72085 -1.23472,-1.0541 -2.21544,-1.55998 -2.99296,-0.80821 -0.77717,0.75212 -0.55986,1.93498 0.23988,2.95662 0.79975,1.02165 2.08739,1.43898 2.08739,1.43898 0,0 -2.95451,-0.11747 -5.4931,1.00542 -1.86408,0.8248 -2.95275,1.70074 -3.88867,2.71357 -1.21708,1.31692 -1.13418,2.06163 -1.05657,2.5781 0.15804,1.05516 1.00683,1.23719 1.00683,1.23719 0,0 -1.61537,1.41146 -2.71004,2.3435 -0.73554,0.62618 -4.49792,4.8507 -4.65702,8.85508 -0.10195,2.27965 2.73226,2.5982 2.73226,2.5982 -1.85808,2.8956 -1.58362,5.44972 -1.38888,6.30132 0.49847,2.17911 1.67005,3.86715 3.45228,4.84858 1.75789,0.96837 1.8856,0.68756 1.8856,0.68756 0,0 2.14418,2.56434 4.22557,3.76943 2.46733,1.42911 7.17691,1.67111 9.49537,1.44075 2.31916,-0.23107 2.23449,1.29928 7.21254,0.92357 3.178881,-0.49636 5.484281,-2.09797 5.484281,-2.09797"
       style="fill:#000000;fill-opacity:1;fill-rule:nonzero;stroke:none;stroke-width:0.352778" />
    <path
       id="path103"
       d="m 93.408699,134.18442 c 0,0 0.56832,0.11747 2.94781,-0.16087 2.16782,-0.254 3.29741,-0.39017 3.29741,-0.39017 0,0 1.048811,4.28872 -2.84797,4.59599 -3.74368,0.29563 -3.39725,-4.04495 -3.39725,-4.04495"
       style="fill:#86333a;fill-opacity:1;fill-rule:nonzero;stroke:none;stroke-width:0.352778" />
    <path
       id="path104"
       d="m 81.206359,135.44359 c 0,-1.14935 0.99272,-2.08068 2.21756,-2.08068 1.22485,0 2.21791,0.93133 2.21791,2.08068 0,1.14935 -0.99306,2.08068 -2.21791,2.08068 -1.22484,0 -2.21756,-0.93133 -2.21756,-2.08068"
       style="fill:#ff9da5;fill-opacity:1;fill-rule:nonzero;stroke:none;stroke-width:0.352778" />
    <path
       id="path105"
       d="m 107.67485,133.1819 c 0,-1.149 0.99307,-2.08104 2.21791,-2.08104 1.22485,0 2.21756,0.93204 2.21756,2.08104 0,1.149 -0.99271,2.08068 -2.21756,2.08068 -1.22484,0 -2.21791,-0.93168 -2.21791,-2.08068"
       style="fill:#ff9da5;fill-opacity:1;fill-rule:nonzero;stroke:none;stroke-width:0.352778" />
    <path
       id="path106"
       d="m 109.42255,129.29185 c -0.13652,-0.69779 -0.82903,-3.02366 -4.01532,-3.66113 -3.20604,-0.64135 -5.651141,1.45486 -6.118931,2.80882 -0.65158,1.88595 0.10689,3.33022 0.18133,3.46463 0.0533,0.1143 0.565861,1.14512 1.887711,1.89089 0.73731,0.41592 1.5935,0.62406 2.56011,0.62406 0.64241,0 1.33386,-0.0921 2.07081,-0.27622 2.46274,-0.6156 3.78671,-3.05083 3.43429,-4.85105"
       style="fill:#fffee6;fill-opacity:1;fill-rule:nonzero;stroke:none;stroke-width:0.352778" />
    <path
       id="path107"
       d="m 99.650359,131.81196 c 0,0 -0.81774,-1.43157 -0.17039,-3.30623 0.31573,-0.91405 1.111601,-1.77412 2.361491,-2.27083 1.06786,-0.42404 1.76001,-0.35102 2.26272,-0.32668 1.20967,0.0586 4.0072,0.86607 3.77507,4.20406 -0.0871,1.25236 -0.9599,3.74897 -3.86115,4.05624 -2.85291,0.30233 -4.367741,-2.35656 -4.367741,-2.35656"
       style="fill:#07060d;fill-opacity:1;fill-rule:nonzero;stroke:none;stroke-width:0.352778" />
    <path
       id="path108"
       d="m 100.88286,127.52867 c 0,-0.76694 0.62124,-1.38818 1.38818,-1.38818 0.76694,0 1.38889,0.62124 1.38889,1.38818 0,0.76694 -0.62195,1.38889 -1.38889,1.38889 -0.76694,0 -1.38818,-0.62195 -1.38818,-1.38889"
       style="fill:#fffee6;fill-opacity:1;fill-rule:nonzero;stroke:none;stroke-width:0.352778" />
    <path
       id="path109"
       d="m 92.814759,129.64255 c -0.46743,-1.35361 -2.91183,-3.44876 -6.11858,-2.80882 -3.18593,0.63783 -3.87914,2.96334 -4.01567,3.66113 -0.35242,1.80058 0.97155,4.23545 3.43429,4.85105 0.73696,0.18415 1.4284,0.27622 2.07081,0.27622 0.96661,0 1.82316,-0.20814 2.56046,-0.62406 1.32186,-0.74577 1.83339,-1.77659 1.88736,-1.89089 0.0748,-0.13511 0.83326,-1.57903 0.18133,-3.46463"
       style="fill:#fffee6;fill-opacity:1;fill-rule:nonzero;stroke:none;stroke-width:0.352778" />
    <path
       id="path110"
       d="m 92.452529,133.01496 c 0,0 0.81809,-1.43157 0.17039,-3.30623 -0.31573,-0.91405 -1.11125,-1.77448 -2.36114,-2.27083 -1.06786,-0.42404 -1.76001,-0.35066 -2.26307,-0.32632 -1.20932,0.0582 -4.00685,0.86571 -3.77472,4.2037 0.0871,1.25236 0.95991,3.74897 3.86115,4.05624 2.85292,0.30233 4.36739,-2.35656 4.36739,-2.35656"
       style="fill:#07060d;fill-opacity:1;fill-rule:nonzero;stroke:none;stroke-width:0.352778" />
    <path
       id="path111"
       d="m 85.698419,128.32965 c 0,-0.76694 0.62124,-1.38853 1.38818,-1.38853 0.76694,0 1.38889,0.62159 1.38889,1.38853 0,0.76694 -0.62195,1.38853 -1.38889,1.38853 -0.76694,0 -1.38818,-0.62159 -1.38818,-1.38853"
       style="fill:#fffee6;fill-opacity:1;fill-rule:nonzero;stroke:none;stroke-width:0.352778" />
  </g>
</svg>
