<?xml version="1.0" encoding="utf-8"?>
<svg width="64" height="64" viewBox="0 0 64 64" fill="none" xmlns="http://www.w3.org/2000/svg">
  <g>
    <path d="M0 2.487C0 2.487 0 8.512 0 8.512C0 9.886 1.114 11 2.487 11C2.487 11 31.512 11 31.512 11C32.886 11 34 9.886 34 8.513C34 8.513 34 2.488 34 2.488C34 1.114 32.886 0 31.513 0C31.513 0 2.487 0 2.487 0C1.114 0 0 1.114 0 2.487C0 2.487 0 2.487 0 2.487Z" fill="#FD3C4F" transform="translate(16 9)" />
    <rect width="6" height="11" fill="#CD2E42" fill-rule="evenodd" transform="translate(21 9)" />
    <path d="M0 3.212C0 3.212 0 12.788 0 12.788C0 14.562 1.438 16 3.212 16C3.212 16 43.788 16 43.788 16C45.562 16 47 14.562 47 12.788C47 12.788 47 3.212 47 3.212C47 1.438 45.562 0 43.788 0C43.788 0 3.212 0 3.212 0C1.438 0 0 1.438 0 3.212C0 3.212 0 3.212 0 3.212Z" fill="#FFCE29" transform="translate(9 36)" />
    <rect width="7" height="16" fill="#FFA500" fill-rule="evenodd" transform="translate(17 36)" />
    <path d="M0 3C0 1.34315 1.34315 0 3 0C4.65685 0 6 1.34315 6 3C6 4.65685 4.65685 6 3 6C1.34315 6 0 4.65685 0 3Z" fill="#FFA500" fill-rule="evenodd" transform="translate(45 41)" />
    <path d="M40 12L40 4C40 4 43 4 43 4C44.105 4 45 3.105 45 2C45 2 45 2 45 2C45 0.895 44.105 0 43 0C43 0 7 0 7 0C3.134 0 0 3.134 0 7C0 7 0 9 0 9C0 12.866 3.134 16 7 16C7 16 43 16 43 16C44.105 16 45 15.105 45 14C45 14 45 14 45 14C45 12.895 44.105 12 43 12C43 12 40 12 40 12L40 12Z" fill="#3476C2" transform="translate(9 20)" />
    <path d="M4 8C4 8 21 8 21 8C21 8 19.99 7 19.99 3.957C19.99 1 21 0 21 0C21 0 4 0 4 0C1.791 0 0 1.791 0 4C0 4 0 4 0 4C0 6.209 1.791 8 4 8C4 8 4 8 4 8Z" fill="#FFE691" transform="translate(31 24)" />
    <path d="M12.79 11.98C12.79 11.98 12 11.98 12 11.98C13.1 11.98 14 11.08 14 9.98C14 8.88 13.1 7.98 12 7.98C12 7.98 10.99 6.98 10.99 3.94C10.99 1.5 11.67 0.4 11.92 0.0799999C11.49 0 11.04 -0.0200005 10.59 0.0200005C7.84 0.27 5.81 2.69 6.05 5.44C6.24 7.55 6.8 9.04 7.38 10.06C7.13 10.65 7 11.3 7 11.98C7 14.16 8.396 16.015 10.339 16.698C10.736 16.838 11 17.212 11 17.633C11 17.633 11 21.98 11 21.98C11 22.532 10.552 22.98 10 22.98C10 22.98 5 22.98 5 22.98C2.24 22.98 0 25.22 0 27.98C0 27.98 12.79 27.98 12.79 27.98C14.563 27.98 16 26.543 16 24.77C16 24.77 16 15.19 16 15.19C16 13.417 14.563 11.98 12.79 11.98C12.79 11.98 12.79 11.98 12.79 11.98Z" fill="#000000" fill-opacity="0.15" transform="translate(40 24.02)" />
    <path d="M9.49 0C8.115 0 7 1.115 7 2.49C7 2.49 7 8.51 7 8.51C7 9.89 8.11 11 9.49 11C9.49 11 7 11 7 11C3.134 11 0 14.134 0 18C0 18 0 20 0 20C0 21.43 0.43 22.76 1.16 23.86C3.36 23.34 5 21.36 5 19C5 19 5 18 5 18C5 16.9 5.9 16 7 16C7 16 9.265 16 9.265 16C12 16 14.399 13.901 14.487 11.167C14.543 9.44 13.728 7.906 12.446 6.97C12.178 6.775 12 6.48 12 6.147C12 6.147 12 5.982 12 5.982C12 5.44 12.44 5 12.982 5C12.982 5 21 5 21 5C23.76 5 26 2.76 26 0C26 0 9.49 0 9.49 0C9.49 0 9.49 0 9.49 0Z" fill="#FFFFFF" fill-opacity="0.3" transform="translate(9 9)" />
    <path d="M7.5 3C7.5 3 1.5 3 1.5 3C0.672001 3 0 2.328 0 1.5C0 0.672 0.672001 0 1.5 0C1.5 0 7.5 0 7.5 0C8.328 0 9 0.672 9 1.5C9 2.328 8.328 3 7.5 3C7.5 3 7.5 3 7.5 3Z" fill="#FFFFFF" transform="translate(23 11)" />
  </g>
</svg>