<?xml version="1.0" encoding="utf-8"?>
<svg width="161" height="161" viewBox="0 0 161 161" fill="none" xmlns="http://www.w3.org/2000/svg">
  <g>
    <rect width="7.547" height="62.891" fill="#9C34C2" fill-rule="evenodd" transform="translate(135.844 65.406)" />
    <path d="M140.875 40.25C140.875 37.3495 139.222 34.8615 136.822 33.5987C136.822 33.5987 136.837 33.5685 136.837 33.5685C123.474 26.5499 92.9347 10.5103 75.1166 1.15467C75.1166 1.15467 75.0964 1.19492 75.0964 1.19492C73.6978 0.457844 72.128 0 70.4375 0C68.747 0 67.1773 0.457844 65.7786 1.19492C65.7786 1.19492 65.7584 1.15467 65.7584 1.15467C47.9403 10.5103 17.4006 26.5499 4.03758 33.5685C4.03758 33.5685 4.05267 33.5987 4.05267 33.5987C1.65277 34.8615 0 37.3495 0 40.25C0 43.1505 1.65277 45.6385 4.05267 46.9013C4.05267 46.9013 4.03758 46.9315 4.03758 46.9315C17.4006 53.9501 47.9403 69.9897 65.7584 79.3453C65.7584 79.3453 65.7786 79.3051 65.7786 79.3051C67.1773 80.0422 68.747 80.5 70.4375 80.5C72.128 80.5 73.6978 80.0422 75.0964 79.3051C75.0964 79.3051 75.1166 79.3453 75.1166 79.3453C92.9347 69.9897 123.474 53.9501 136.837 46.9315C136.837 46.9315 136.822 46.9013 136.822 46.9013C139.222 45.6385 140.875 43.1505 140.875 40.25C140.875 40.25 140.875 40.25 140.875 40.25Z" fill="#37D0EE" transform="translate(10.063 22.641)" />
    <path d="M47.7969 0C21.4004 0 0 5.63248 0 12.5781C0 12.5781 0 52.8281 0 52.8281C0 55.6054 2.25148 57.8594 5.03125 57.8594C20.125 57.8594 32.7031 62.8906 44.0863 71.3205C44.0888 71.3155 44.0914 71.3104 44.0939 71.3054C45.0146 72.3116 46.3252 72.9531 47.7969 72.9531C49.2685 72.9531 50.5792 72.3116 51.4974 71.3054C51.4999 71.3104 51.5024 71.3155 51.5049 71.3205C62.8906 62.8906 75.4688 57.8594 90.5625 57.8594C93.3423 57.8594 95.5938 55.6054 95.5938 52.8281C95.5938 52.8281 95.5938 12.5781 95.5938 12.5781C95.5938 5.63248 74.1933 0 47.7969 0C47.7969 0 47.7969 0 47.7969 0Z" fill="#008AA9" transform="translate(32.703 57.859)" />
    <path d="M17.6094 8.80469C17.6094 3.94199 13.6674 0 8.80469 0C3.94199 0 0 3.94199 0 8.80469C0 15.0938 5.03125 25.1562 8.80469 25.1562C12.5781 25.1562 17.6094 15.0938 17.6094 8.80469C17.6094 8.80469 17.6094 8.80469 17.6094 8.80469Z" fill="#FFCE29" transform="translate(130.813 120.75)" />
    <path d="M47.7989 0C47.7989 0 47.7989 30.1875 47.7989 30.1875C47.7989 32.9547 45.5348 35.2187 42.7676 35.2187C27.6739 35.2187 15.0958 40.25 3.69999 48.6773C3.24718 49.1553 2.69373 49.5578 2.06483 49.8597C1.86357 49.583 1.68748 49.3062 1.53654 49.0295C-1.78407 42.9165 0.454826 35.2691 6.54265 31.9484C15.6995 26.9172 25.1583 23.9739 35.2208 22.9928C35.2208 22.9928 35.2208 12.5781 35.2208 12.5781C35.2208 5.635 40.8558 0 47.7989 0C47.7989 0 47.7989 0 47.7989 0Z" fill="#000000" fill-opacity="0.15" transform="translate(80.498 80.5)" />
    <path d="M78.2108 2.79234C77.7077 6.71672 75.3681 10.3141 71.5947 12.3014C71.5947 12.3014 9.88641 44.7027 9.88641 44.7027C8.02484 45.6837 6.01234 46.1366 4.05016 46.1366C3.64766 46.1366 3.24516 46.1114 2.84266 46.0863C1.10688 44.7278 0 42.6147 0 40.25C0 37.357 1.66031 34.8666 4.05016 33.6087C4.05016 33.6087 4.05016 33.5584 4.05016 33.5584C17.4081 26.5398 47.9478 10.5153 65.7584 1.15719C65.7584 1.15719 65.7836 1.18234 65.7836 1.18234C67.1672 0.452814 68.752 0 70.4375 0C72.123 0 73.7078 0.452814 75.0914 1.18234C75.0914 1.18234 75.1166 1.15719 75.1166 1.15719C76.1228 1.68547 77.1542 2.21375 78.2108 2.79234C78.2108 2.79234 78.2108 2.79234 78.2108 2.79234Z" fill="#FFFFFF" fill-opacity="0.3" transform="matrix(1 0 0 1 10.063 22.641)" />
    <path d="M3.77707 15.0933C2.39348 15.0933 1.0602 14.3286 0.39859 13.0079C-0.532196 11.1438 0.222496 8.8772 2.08657 7.9439C2.08657 7.9439 17.1803 0.397032 17.1803 0.397032C19.0444 -0.531235 21.311 0.223454 22.2443 2.08501C23.1751 3.94909 22.4204 6.21567 20.5563 7.14897C20.5563 7.14897 5.46254 14.6958 5.46254 14.6958C4.92168 14.965 4.3456 15.0933 3.77707 15.0933C3.77707 15.0933 3.77707 15.0933 3.77707 15.0933Z" fill="#FFFFFF" transform="translate(57.858 30.188)" />
  </g>
</svg>