<?xml version="1.0" encoding="utf-8"?>
<svg width="103" height="103" viewBox="0 0 103 103" fill="none" xmlns="http://www.w3.org/2000/svg">
  <g>
    <path d="M70.8125 59.5469C70.8125 59.5469 6.4375 59.5469 6.4375 59.5469C2.88239 59.5469 0 56.6645 0 53.1094C0 53.1094 0 6.4375 0 6.4375C0 2.88239 2.88239 0 6.4375 0C6.4375 0 70.8125 0 70.8125 0C74.3676 0 77.25 2.88239 77.25 6.4375C77.25 6.4375 77.25 53.1094 77.25 53.1094C77.25 56.6645 74.3676 59.5469 70.8125 59.5469C70.8125 59.5469 70.8125 59.5469 70.8125 59.5469Z" fill="#37D0EE" transform="translate(12.875 14.484)" />
    <path d="M33.7969 0C33.7969 0 6.4375 0 6.4375 0C2.88239 0 0 2.88239 0 6.4375C0 6.4375 0 38.625 0 38.625C4.4451 38.625 8.04688 35.0232 8.04688 30.5781C8.04688 30.5781 8.04688 8.04688 8.04688 8.04688C8.04688 8.04688 25.75 8.04688 25.75 8.04688C30.1951 8.04688 33.7969 4.4451 33.7969 0C33.7969 0 33.7969 0 33.7969 0Z" fill="#FFFFFF" fill-opacity="0.3" transform="translate(12.875 14.484)" />
    <path d="M46.6719 33.7969C46.6719 33.7969 46.6719 0 46.6719 0C42.2268 0 38.625 3.60178 38.625 8.04688C38.625 8.04688 38.625 28.9688 38.625 28.9688C38.625 30.7471 37.1846 32.1875 35.4062 32.1875C35.4062 32.1875 8.04688 32.1875 8.04688 32.1875C3.60178 32.1875 0 35.7893 0 40.2344C0 40.2344 40.2344 40.2344 40.2344 40.2344C43.7895 40.2344 46.6719 37.352 46.6719 33.7969C46.6719 33.7969 46.6719 33.7969 46.6719 33.7969Z" fill="#000000" fill-opacity="0.15" transform="translate(43.453 33.797)" />
    <path d="M2.41406 14.4715C1.07989 14.4715 0 13.39 0 12.0574C0 12.0574 0 4.02344 0 4.02344C0 1.80411 1.80572 0 4.02344 0C4.02344 0 8.86283 0 8.86283 0C10.197 0 11.2769 1.0815 11.2769 2.41406C11.2769 3.74663 10.197 4.82812 8.86283 4.82812C8.86283 4.82812 4.82813 4.82812 4.82813 4.82812C4.82813 4.82812 4.82813 12.0574 4.82813 12.0574C4.82812 13.39 3.74662 14.4715 2.41406 14.4715C2.41406 14.4715 2.41406 14.4715 2.41406 14.4715Z" fill="#FFFFFF" transform="translate(16.092 17.706)" />
    <rect width="16.094" height="9.656" fill="#9C34C2" fill-rule="evenodd" transform="translate(43.453 74.031)" />
    <path d="M37.0156 9.65625C37.0156 9.65625 4.82812 9.65625 4.82812 9.65625C2.16139 9.65625 0 7.49486 0 4.82812C0 4.82812 0 4.82812 0 4.82812C0 2.16138 2.16139 0 4.82812 0C4.82812 0 37.0156 0 37.0156 0C39.6824 0 41.8438 2.16138 41.8438 4.82812C41.8438 4.82812 41.8438 4.82812 41.8438 4.82812C41.8438 7.49486 39.6824 9.65625 37.0156 9.65625C37.0156 9.65625 37.0156 9.65625 37.0156 9.65625Z" fill="#9C34C2" transform="translate(30.578 80.469)" />
    <line x1="9.656" y1="0" x2="0" y2="30.578" fill="none" stroke-width="3" stroke="#9C34C2" stroke-linecap="round" stroke-linejoin="round" transform="translate(46.672 28.164)" />
    <path d="M12.875 14.4844L0 6.98952L12.875 0" fill="none" stroke-width="3" stroke="#9C34C2" stroke-linecap="round" stroke-linejoin="round" transform="translate(28.969 36.211)" />
    <path d="M0 14.4844L12.875 6.98952L0 0" fill="none" stroke-width="3" stroke="#9C34C2" stroke-linecap="round" stroke-linejoin="round" transform="translate(61.156 36.211)" />
  </g>
</svg>