<?xml version="1.0" encoding="utf-8"?>
<svg width="64" height="64" viewBox="0 0 64 64" fill="none" xmlns="http://www.w3.org/2000/svg">
  <g>
    <path d="M49 41C49 41 4 41 4 41C1.791 41 0 39.209 0 37C0 37 0 4 0 4C0 1.791 1.791 0 4 0C4 0 49 0 49 0C51.209 0 53 1.791 53 4C53 4 53 37 53 37C53 39.209 51.209 41 49 41C49 41 49 41 49 41Z" fill="#FFA500" transform="translate(6 11)" />
    <path d="M23 0C23 0 4 0 4 0C1.791 0 0 1.791 0 4C0 4 0 31 0 31C2.761 31 5 28.761 5 26C5 26 5 7 5 7C5 5.895 5.895 5 7 5C7 5 18 5 18 5C20.761 5 23 2.761 23 0C23 0 23 0 23 0Z" fill="#FFFFFF" fill-opacity="0.3" transform="translate(6 11)" />
    <path d="M26 28C26 28 26 0 26 0C23.239 0 21 2.239 21 5C21 5 21 25 21 25C21 26.105 20.105 27 19 27C19 27 5 27 5 27C2.239 27 0 29.239 0 32C0 32 22 32 22 32C24.209 32 26 30.209 26 28C26 28 26 28 26 28Z" fill="#000000" fill-opacity="0.15" transform="translate(33 20)" />
    <path d="M0 29C0 29 0 2 0 2C0 0.895 0.895 0 2 0C2 0 41 0 41 0C42.105 0 43 0.895 43 2C43 2 43 29 43 29C43 30.105 42.105 31 41 31C41 31 2 31 2 31C0.895 31 0 30.105 0 29C0 29 0 29 0 29Z" fill="#FFCE29" transform="translate(11 16)" />
    <line x1="0" y1="0" x2="5" y2="0" fill="none" stroke-width="3" stroke="#FFFFFF" stroke-linecap="round" stroke-linejoin="round" transform="translate(14.5 14.5)" />
    <path d="M17.8155 11.7185C17.8155 11.7185 6.37049 16.8655 6.37049 16.8655C5.36349 17.3185 4.17949 16.8695 3.72649 15.8615C3.72649 15.8615 0.176491 7.96749 0.176491 7.96749C-0.27651 6.96049 0.172489 5.77649 1.18049 5.32349C1.18049 5.32349 12.6255 0.176489 12.6255 0.176489C13.6325 -0.27651 14.8165 0.172489 15.2695 1.18049C15.2695 1.18049 18.8195 9.07449 18.8195 9.07449C19.2715 10.0815 18.8225 11.2655 17.8155 11.7185C17.8155 11.7185 17.8155 11.7185 17.8155 11.7185Z" fill="#FD3C4F" transform="translate(15.979 20.018)" />
    <path d="M0 1.5C0 0.671574 0.671574 0 1.5 0C2.32843 0 3 0.671574 3 1.5C3 2.32843 2.32843 3 1.5 3C0.671574 3 0 2.32843 0 1.5Z" fill="#A11AC9" fill-rule="evenodd" transform="translate(23 25)" />
    <path d="M17 15C17 15 2 15 2 15C0.895 15 0 14.105 0 13C0 13 0 2 0 2C0 0.895 0.895 0 2 0C2 0 17 0 17 0C18.105 0 19 0.895 19 2C19 2 19 13 19 13C19 14.105 18.105 15 17 15C17 15 17 15 17 15Z" fill="#A0EFFE" transform="translate(29 26)" />
    <path d="M0 1.5C0 0.671574 0.671574 0 1.5 0C2.32843 0 3 0.671574 3 1.5C3 2.32843 2.32843 3 1.5 3C0.671574 3 0 2.32843 0 1.5Z" fill="#A11AC9" fill-rule="evenodd" transform="translate(37 28)" />
  </g>
</svg>