<?xml version="1.0" encoding="utf-8"?>
<svg width="64" height="64" viewBox="0 0 64 64" fill="none" xmlns="http://www.w3.org/2000/svg">
  <g>
    <path d="M41 8.999L41 41C41 41 5 41 5 41C2.239 41 0 38.761 0 36C0 36 0 4 0 4C0 1.791 1.791 0 4 0C4 0 15.046 0 15.046 0C16.802 0 18.353 1.145 18.869 2.824C18.869 2.824 19.103 3.585 19.103 3.585C19.361 4.424 20.136 4.997 21.014 4.997C21.014 4.997 37 5 37 5C39.21 5 41 6.79 41 8.999C41 8.999 41 8.999 41 8.999Z" fill="#FFA500" transform="translate(8 11)" />
    <path d="M42.22 0C42.22 0 11.7 0 11.7 0C8.381 0 5.518 2.331 4.845 5.582C4.845 5.582 0 29 0 29C0 29 36.3 29 36.3 29C39.619 29 42.482 26.669 43.155 23.418C43.155 23.418 46.829 5.66 46.829 5.66C47.433 2.739 45.203 0 42.22 0C42.22 0 42.22 0 42.22 0Z" fill="#FFCE29" transform="translate(13 23)" />
    <path d="M30.225 0C30.225 0 8.925 0 8.925 0C5.606 0 2.743 2.331 2.07 5.582C2.07 5.582 0 15.59 0 15.59C0 15.59 0 15.59 0.0010004 15.59C0.343 15.66 0.683001 15.694 1.019 15.694C3.34 15.694 5.421 14.068 5.911 11.706C5.911 11.706 6.969 6.594 6.969 6.594C7.159 5.67 7.982 5 8.925 5C8.925 5 25.225 5 25.225 5C27.987 5 30.225 2.762 30.225 0C30.225 0 30.225 0 30.225 0Z" fill="#FFFFFF" fill-opacity="0.3" transform="translate(15.775 23)" />
    <path d="M22.155 14.5282C22.155 14.5282 25.139 0.104189 25.139 0.104189C25.139 0.104189 25.139 0.104189 25.138 0.104189C22.427 -0.453812 19.788 1.28519 19.229 3.98819C19.229 3.98819 17.258 13.5142 17.258 13.5142C17.067 14.4392 16.244 15.1102 15.301 15.1102C15.301 15.1102 5 15.1102 5 15.1102C2.238 15.1102 0 17.3482 0 20.1102C0 20.1102 15.3 20.1102 15.3 20.1102C18.62 20.1102 21.483 17.7792 22.155 14.5282C22.155 14.5282 22.155 14.5282 22.155 14.5282Z" fill="#000000" fill-opacity="0.15" transform="translate(34 31.89)" />
    <path d="M0 5.181C0 5.181 0.493999 2.791 0.493999 2.791C0.827999 1.174 2.269 0 3.921 0C3.921 0 7.659 0 7.659 0" fill="none" stroke-width="3" stroke="#FFFFFF" stroke-linecap="round" stroke-linejoin="round" transform="translate(20.779 26.5)" />
  </g>
</svg>