<?xml version="1.0" encoding="utf-8"?>
<svg width="64" height="64" viewBox="0 0 64 64" fill="none" xmlns="http://www.w3.org/2000/svg">
  <g>
    <path d="M43.478 10.5199C43.478 10.5199 26.651 0.919928 26.651 0.919928C24.518 -0.297072 21.904 -0.307072 19.762 0.892928C19.762 0.892928 2.558 10.5279 2.558 10.5279C0.978 11.4109 0 13.0799 0 14.8899C0 14.8899 0 42.9589 0 42.9589C0 45.7199 2.239 47.9589 5 47.9589C5 47.9589 41 47.9589 41 47.9589C43.761 47.9589 46 45.7199 46 42.9589C46 42.9589 46 14.8629 46 14.8629C46 13.0669 45.037 11.4099 43.478 10.5199C43.478 10.5199 43.478 10.5199 43.478 10.5199Z" fill="#68E5FD" transform="translate(9 6.041)" />
    <path d="M49.4976 17.999C49.0885 17.999 48.6735 17.898 48.2895 17.687C48.2895 17.687 25.9995 5.356 25.9995 5.356C25.9995 5.356 3.70955 17.687 3.70955 17.687C2.50355 18.354 0.980549 17.918 0.312549 16.709C-0.355451 15.501 0.0825491 13.98 1.29055 13.312C1.29055 13.312 24.7906 0.312 24.7906 0.312C25.5425 -0.104 26.4585 -0.104 27.2105 0.312C27.2105 0.312 50.7105 13.312 50.7105 13.312C51.9185 13.98 52.3565 15.501 51.6885 16.709C51.2305 17.534 50.3775 17.999 49.4976 17.999C49.4976 17.999 49.4976 17.999 49.4976 17.999Z" fill="#FD3C4F" transform="translate(6 5.001)" />
    <path d="M25.682 0.0446086C25.12 -0.0593915 24.532 0.0156088 24.019 0.299609C24.019 0.299609 0.519 13.2996 0.519 13.2996C0.322 13.4086 0.154 13.5466 0 13.6956C0.923 15.2926 2.597 16.1966 4.328 16.1966C5.146 16.1966 5.976 15.9956 6.743 15.5706C6.743 15.5706 23.497 6.30261 23.497 6.30261C25.739 5.06361 26.63 2.35961 25.682 0.0446086C25.682 0.0446086 25.682 0.0446086 25.682 0.0446086Z" fill="#FFFFFF" fill-opacity="0.3" transform="translate(6.771 5.012)" />
    <line x1="7.955" y1="0" x2="0" y2="4.415" fill="none" stroke-width="3" stroke="#FFFFFF" stroke-linecap="round" stroke-linejoin="round" transform="translate(17.517 12.225)" />
    <path d="M10 12C10 12 2 12 2 12C0.895 12 0 11.105 0 10C0 10 0 2 0 2C0 0.895 0.895 0 2 0C2 0 10 0 10 0C11.105 0 12 0.895 12 2C12 2 12 10 12 10C12 11.105 11.105 12 10 12C10 12 10 12 10 12Z" fill="#008AA9" transform="translate(14 30)" />
    <path d="M18 24L0 24C0 24 0 2 0 2C0 0.895 0.895 0 2 0C2 0 16 0 16 0C17.105 0 18 0.895 18 2C18 2 18 24 18 24L18 24Z" fill="#FD3C4F" transform="translate(32 30)" />
    <path d="M0 19.997C0 19.997 14.997 19.997 14.997 19.997C17.758 19.997 19.997 17.758 19.997 14.997C19.997 14.997 19.997 0 19.997 0C17.236 0 14.997 2.236 14.997 4.997C14.997 4.997 14.997 12.997 14.997 12.997C14.997 14.102 14.102 14.997 12.997 14.997C12.997 14.997 5.212 14.997 5.212 14.997C2.6 14.997 0.268002 16.907 0.0210037 19.507C0.00500107 19.672 0 19.835 0 19.997C0 19.997 0 19.997 0 19.997Z" fill="#000000" fill-opacity="0.15" transform="translate(35.003 34.003)" />
  </g>
</svg>