<?xml version="1.0" encoding="utf-8"?>
<svg width="110" height="110" viewBox="0 0 110 110" fill="none" xmlns="http://www.w3.org/2000/svg">
  <g>
    <path d="M72.0324 53.6611C72.0324 53.6611 17.3331 53.68 17.3331 53.68C10.3206 53.6817 3.74127 49.5997 1.2233 43.0564C-0.270291 39.172 -0.455916 34.7652 0.998147 30.5181C0.998147 30.5181 11.046 0 11.046 0L78.1821 0C78.1821 0 88.3674 30.6539 88.3674 30.6539C89.6513 34.4042 89.6582 38.2645 88.6132 41.7742C86.4716 48.9655 79.5347 53.6594 72.0324 53.6611C72.0324 53.6611 72.0324 53.6611 72.0324 53.6611Z" fill="#9C34C2" transform="translate(10.316 37.422)" />
    <path d="M0 6.01562C0 2.69329 2.69329 0 6.01562 0C9.33796 0 12.0312 2.69329 12.0312 6.01562C12.0312 9.33796 9.33796 12.0312 6.01562 12.0312C2.69329 12.0312 0 9.33796 0 6.01562Z" fill="#FFCE29" fill-rule="evenodd" transform="translate(18.886 51.563)" />
    <path d="M0 5.99156C0 2.68251 2.69329 0 6.01562 0C9.33797 0 12.0312 2.68251 12.0312 5.99156C12.0312 9.30061 9.33797 11.9831 6.01562 11.9831C2.69329 11.9831 0 9.30061 0 5.99156Z" fill="#FFCE29" fill-rule="evenodd" transform="translate(79.042 51.611)" />
    <path d="M0 37.015C0 16.5722 13.8512 0 30.9375 0C48.0238 0 61.875 16.5722 61.875 37.015C61.875 57.4578 48.0238 74.03 30.9375 74.03C13.8512 74.03 0 57.4578 0 37.015Z" fill="#FFCE29" fill-rule="evenodd" transform="translate(24.042 20.867)" />
    <path d="M35.5833 0C15.9311 0 0 15.9311 0 35.5833C0 36.3464 0.06703 37.0906 0.113438 37.8417C0.866249 37.883 1.60875 37.9552 2.37188 37.9552C16.1545 37.9552 28.3095 31.0303 35.5833 20.4823C42.857 31.032 55.012 37.9552 68.7947 37.9552C69.5578 37.9552 70.3003 37.883 71.0531 37.8417C71.0995 37.0906 71.1666 36.3464 71.1666 35.5833C71.1666 15.9311 55.2355 0 35.5833 0C35.5833 0 35.5833 0 35.5833 0Z" fill="#9C34C2" transform="translate(19.351 13.702)" />
    <path d="M0 7.01422C2.14844 4.2436 4.77641 1.86312 7.75844 0" fill="none" stroke-width="3" stroke="#FFFFFF" stroke-linecap="round" stroke-linejoin="round" transform="translate(31.556 24.188)" />
    <path d="M0 29.8513C0.766563 30.0661 1.53828 30.2105 2.30656 30.2105C5.65641 30.2105 8.83953 28.2408 10.2248 24.9614C13.3117 17.6619 19.4098 12.1069 26.9517 9.72469C31.1266 8.40641 33.5431 4.19547 32.7766 0C16.0978 1.07938 2.57984 13.6228 0 29.8513C0 29.8513 0 29.8513 0 29.8513Z" fill="#FFFFFF" fill-opacity="0.3" transform="translate(19.836 13.819)" />
    <path d="M23.7325 3.05775C19.5508 8.06103 14.1247 10.8179 8.45109 10.8179C4.19031 10.8179 0.680626 13.9237 0 17.9902C10.4345 21.524 22.1134 18.3959 30.3274 8.56806C32.1664 6.36635 33.6909 3.93947 34.9714 1.38541C31.3775 -0.938347 26.5495 -0.311005 23.7325 3.05775C23.7325 3.05775 23.7325 3.05775 23.7325 3.05775Z" fill="#000000" fill-opacity="0.15" transform="translate(46.527 75.487)" />
  </g>
</svg>